<svg xmlns="http://www.w3.org/2000/svg" xmlns:xlink="http://www.w3.org/1999/xlink" width="375" zoomAndPan="magnify" viewBox="0 0 375 374.999991" height="374.999991" preserveAspectRatio="xMidYMid meet" version="1.0"><defs><clipPath id="id1"><path d="M 46 106.261719 L 329 106.261719 L 329 293 L 46 293 Z M 46 106.261719 " clip-rule="nonzero"/></clipPath><clipPath id="id2"><path d="M 241 127 L 243 127 L 243 182 L 241 182 Z M 241 127 " clip-rule="nonzero"/></clipPath><clipPath id="id3"><path d="M 390.816406 174.335938 L 286.96875 213.53125 L 241.148438 92.140625 L 345 52.945312 Z M 390.816406 174.335938 " clip-rule="nonzero"/></clipPath><clipPath id="id4"><path d="M 390.816406 174.335938 L 133.300781 271.535156 L 77.949219 124.882812 L 335.464844 27.683594 Z M 390.816406 174.335938 " clip-rule="nonzero"/></clipPath><clipPath id="id5"><path d="M 390.816406 174.335938 L 133.300781 271.535156 L 77.949219 124.882812 L 335.464844 27.683594 Z M 390.816406 174.335938 " clip-rule="nonzero"/></clipPath><clipPath id="id6"><path d="M 241 140 L 244 140 L 244 186 L 241 186 Z M 241 140 " clip-rule="nonzero"/></clipPath><clipPath id="id7"><path d="M 390.816406 174.335938 L 286.96875 213.53125 L 241.148438 92.140625 L 345 52.945312 Z M 390.816406 174.335938 " clip-rule="nonzero"/></clipPath><clipPath id="id8"><path d="M 390.816406 174.335938 L 133.300781 271.535156 L 77.949219 124.882812 L 335.464844 27.683594 Z M 390.816406 174.335938 " clip-rule="nonzero"/></clipPath><clipPath id="id9"><path d="M 390.816406 174.335938 L 133.300781 271.535156 L 77.949219 124.882812 L 335.464844 27.683594 Z M 390.816406 174.335938 " clip-rule="nonzero"/></clipPath><clipPath id="id10"><path d="M 241 141 L 245 141 L 245 188 L 241 188 Z M 241 141 " clip-rule="nonzero"/></clipPath><clipPath id="id11"><path d="M 390.816406 174.335938 L 286.96875 213.53125 L 241.148438 92.140625 L 345 52.945312 Z M 390.816406 174.335938 " clip-rule="nonzero"/></clipPath><clipPath id="id12"><path d="M 390.816406 174.335938 L 133.300781 271.535156 L 77.949219 124.882812 L 335.464844 27.683594 Z M 390.816406 174.335938 " clip-rule="nonzero"/></clipPath><clipPath id="id13"><path d="M 390.816406 174.335938 L 133.300781 271.535156 L 77.949219 124.882812 L 335.464844 27.683594 Z M 390.816406 174.335938 " clip-rule="nonzero"/></clipPath><clipPath id="id14"><path d="M 241 143 L 243 143 L 243 193 L 241 193 Z M 241 143 " clip-rule="nonzero"/></clipPath><clipPath id="id15"><path d="M 390.816406 174.335938 L 286.96875 213.53125 L 241.148438 92.140625 L 345 52.945312 Z M 390.816406 174.335938 " clip-rule="nonzero"/></clipPath><clipPath id="id16"><path d="M 390.816406 174.335938 L 133.300781 271.535156 L 77.949219 124.882812 L 335.464844 27.683594 Z M 390.816406 174.335938 " clip-rule="nonzero"/></clipPath><clipPath id="id17"><path d="M 390.816406 174.335938 L 133.300781 271.535156 L 77.949219 124.882812 L 335.464844 27.683594 Z M 390.816406 174.335938 " clip-rule="nonzero"/></clipPath><clipPath id="id18"><path d="M 241 137 L 249 137 L 249 202 L 241 202 Z M 241 137 " clip-rule="nonzero"/></clipPath><clipPath id="id19"><path d="M 390.816406 174.335938 L 286.96875 213.53125 L 241.148438 92.140625 L 345 52.945312 Z M 390.816406 174.335938 " clip-rule="nonzero"/></clipPath><clipPath id="id20"><path d="M 390.816406 174.335938 L 133.300781 271.535156 L 77.949219 124.882812 L 335.464844 27.683594 Z M 390.816406 174.335938 " clip-rule="nonzero"/></clipPath><clipPath id="id21"><path d="M 390.816406 174.335938 L 133.300781 271.535156 L 77.949219 124.882812 L 335.464844 27.683594 Z M 390.816406 174.335938 " clip-rule="nonzero"/></clipPath><clipPath id="id22"><path d="M 241 139 L 250 139 L 250 204 L 241 204 Z M 241 139 " clip-rule="nonzero"/></clipPath><clipPath id="id23"><path d="M 390.816406 174.335938 L 286.96875 213.53125 L 241.148438 92.140625 L 345 52.945312 Z M 390.816406 174.335938 " clip-rule="nonzero"/></clipPath><clipPath id="id24"><path d="M 390.816406 174.335938 L 133.300781 271.535156 L 77.949219 124.882812 L 335.464844 27.683594 Z M 390.816406 174.335938 " clip-rule="nonzero"/></clipPath><clipPath id="id25"><path d="M 390.816406 174.335938 L 133.300781 271.535156 L 77.949219 124.882812 L 335.464844 27.683594 Z M 390.816406 174.335938 " clip-rule="nonzero"/></clipPath><clipPath id="id26"><path d="M 241 147 L 269 147 L 269 210 L 241 210 Z M 241 147 " clip-rule="nonzero"/></clipPath><clipPath id="id27"><path d="M 390.816406 174.335938 L 286.96875 213.53125 L 241.148438 92.140625 L 345 52.945312 Z M 390.816406 174.335938 " clip-rule="nonzero"/></clipPath><clipPath id="id28"><path d="M 390.816406 174.335938 L 133.300781 271.535156 L 77.949219 124.882812 L 335.464844 27.683594 Z M 390.816406 174.335938 " clip-rule="nonzero"/></clipPath><clipPath id="id29"><path d="M 390.816406 174.335938 L 133.300781 271.535156 L 77.949219 124.882812 L 335.464844 27.683594 Z M 390.816406 174.335938 " clip-rule="nonzero"/></clipPath><clipPath id="id30"><path d="M 241 150 L 269 150 L 269 207 L 241 207 Z M 241 150 " clip-rule="nonzero"/></clipPath><clipPath id="id31"><path d="M 390.816406 174.335938 L 286.96875 213.53125 L 241.148438 92.140625 L 345 52.945312 Z M 390.816406 174.335938 " clip-rule="nonzero"/></clipPath><clipPath id="id32"><path d="M 390.816406 174.335938 L 133.300781 271.535156 L 77.949219 124.882812 L 335.464844 27.683594 Z M 390.816406 174.335938 " clip-rule="nonzero"/></clipPath><clipPath id="id33"><path d="M 390.816406 174.335938 L 133.300781 271.535156 L 77.949219 124.882812 L 335.464844 27.683594 Z M 390.816406 174.335938 " clip-rule="nonzero"/></clipPath><clipPath id="id34"><path d="M 241 151 L 322 151 L 322 214 L 241 214 Z M 241 151 " clip-rule="nonzero"/></clipPath><clipPath id="id35"><path d="M 390.816406 174.335938 L 286.96875 213.53125 L 241.148438 92.140625 L 345 52.945312 Z M 390.816406 174.335938 " clip-rule="nonzero"/></clipPath><clipPath id="id36"><path d="M 390.816406 174.335938 L 133.300781 271.535156 L 77.949219 124.882812 L 335.464844 27.683594 Z M 390.816406 174.335938 " clip-rule="nonzero"/></clipPath><clipPath id="id37"><path d="M 390.816406 174.335938 L 133.300781 271.535156 L 77.949219 124.882812 L 335.464844 27.683594 Z M 390.816406 174.335938 " clip-rule="nonzero"/></clipPath><clipPath id="id38"><path d="M 241 180 L 255 180 L 255 214 L 241 214 Z M 241 180 " clip-rule="nonzero"/></clipPath><clipPath id="id39"><path d="M 390.816406 174.335938 L 286.96875 213.53125 L 241.148438 92.140625 L 345 52.945312 Z M 390.816406 174.335938 " clip-rule="nonzero"/></clipPath><clipPath id="id40"><path d="M 390.816406 174.335938 L 133.300781 271.535156 L 77.949219 124.882812 L 335.464844 27.683594 Z M 390.816406 174.335938 " clip-rule="nonzero"/></clipPath><clipPath id="id41"><path d="M 390.816406 174.335938 L 133.300781 271.535156 L 77.949219 124.882812 L 335.464844 27.683594 Z M 390.816406 174.335938 " clip-rule="nonzero"/></clipPath><clipPath id="id42"><path d="M 242 121 L 291 121 L 291 168 L 242 168 Z M 242 121 " clip-rule="nonzero"/></clipPath><clipPath id="id43"><path d="M 390.816406 174.335938 L 286.96875 213.53125 L 241.148438 92.140625 L 345 52.945312 Z M 390.816406 174.335938 " clip-rule="nonzero"/></clipPath><clipPath id="id44"><path d="M 390.816406 174.335938 L 133.300781 271.535156 L 77.949219 124.882812 L 335.464844 27.683594 Z M 390.816406 174.335938 " clip-rule="nonzero"/></clipPath><clipPath id="id45"><path d="M 390.816406 174.335938 L 133.300781 271.535156 L 77.949219 124.882812 L 335.464844 27.683594 Z M 390.816406 174.335938 " clip-rule="nonzero"/></clipPath><clipPath id="id46"><path d="M 241 167 L 261 167 L 261 214 L 241 214 Z M 241 167 " clip-rule="nonzero"/></clipPath><clipPath id="id47"><path d="M 390.816406 174.335938 L 286.96875 213.53125 L 241.148438 92.140625 L 345 52.945312 Z M 390.816406 174.335938 " clip-rule="nonzero"/></clipPath><clipPath id="id48"><path d="M 390.816406 174.335938 L 133.300781 271.535156 L 77.949219 124.882812 L 335.464844 27.683594 Z M 390.816406 174.335938 " clip-rule="nonzero"/></clipPath><clipPath id="id49"><path d="M 390.816406 174.335938 L 133.300781 271.535156 L 77.949219 124.882812 L 335.464844 27.683594 Z M 390.816406 174.335938 " clip-rule="nonzero"/></clipPath><clipPath id="id50"><path d="M 241 166 L 264 166 L 264 214 L 241 214 Z M 241 166 " clip-rule="nonzero"/></clipPath><clipPath id="id51"><path d="M 390.816406 174.335938 L 286.96875 213.53125 L 241.148438 92.140625 L 345 52.945312 Z M 390.816406 174.335938 " clip-rule="nonzero"/></clipPath><clipPath id="id52"><path d="M 390.816406 174.335938 L 133.300781 271.535156 L 77.949219 124.882812 L 335.464844 27.683594 Z M 390.816406 174.335938 " clip-rule="nonzero"/></clipPath><clipPath id="id53"><path d="M 390.816406 174.335938 L 133.300781 271.535156 L 77.949219 124.882812 L 335.464844 27.683594 Z M 390.816406 174.335938 " clip-rule="nonzero"/></clipPath><clipPath id="id54"><path d="M 241 108 L 254 108 L 254 170 L 241 170 Z M 241 108 " clip-rule="nonzero"/></clipPath><clipPath id="id55"><path d="M 390.816406 174.335938 L 286.96875 213.53125 L 241.148438 92.140625 L 345 52.945312 Z M 390.816406 174.335938 " clip-rule="nonzero"/></clipPath><clipPath id="id56"><path d="M 390.816406 174.335938 L 133.300781 271.535156 L 77.949219 124.882812 L 335.464844 27.683594 Z M 390.816406 174.335938 " clip-rule="nonzero"/></clipPath><clipPath id="id57"><path d="M 390.816406 174.335938 L 133.300781 271.535156 L 77.949219 124.882812 L 335.464844 27.683594 Z M 390.816406 174.335938 " clip-rule="nonzero"/></clipPath><clipPath id="id58"><path d="M 241 150 L 249 150 L 249 171 L 241 171 Z M 241 150 " clip-rule="nonzero"/></clipPath><clipPath id="id59"><path d="M 390.816406 174.335938 L 286.96875 213.53125 L 241.148438 92.140625 L 345 52.945312 Z M 390.816406 174.335938 " clip-rule="nonzero"/></clipPath><clipPath id="id60"><path d="M 390.816406 174.335938 L 133.300781 271.535156 L 77.949219 124.882812 L 335.464844 27.683594 Z M 390.816406 174.335938 " clip-rule="nonzero"/></clipPath><clipPath id="id61"><path d="M 390.816406 174.335938 L 133.300781 271.535156 L 77.949219 124.882812 L 335.464844 27.683594 Z M 390.816406 174.335938 " clip-rule="nonzero"/></clipPath><clipPath id="id62"><path d="M 241 69 L 355 69 L 355 187 L 241 187 Z M 241 69 " clip-rule="nonzero"/></clipPath><clipPath id="id63"><path d="M 390.816406 174.335938 L 286.96875 213.53125 L 241.148438 92.140625 L 345 52.945312 Z M 390.816406 174.335938 " clip-rule="nonzero"/></clipPath><clipPath id="id64"><path d="M 390.816406 174.335938 L 133.300781 271.535156 L 77.949219 124.882812 L 335.464844 27.683594 Z M 390.816406 174.335938 " clip-rule="nonzero"/></clipPath><clipPath id="id65"><path d="M 390.816406 174.335938 L 133.300781 271.535156 L 77.949219 124.882812 L 335.464844 27.683594 Z M 390.816406 174.335938 " clip-rule="nonzero"/></clipPath><clipPath id="id66"><path d="M 269 142 L 320 142 L 320 163 L 269 163 Z M 269 142 " clip-rule="nonzero"/></clipPath><clipPath id="id67"><path d="M 390.816406 174.335938 L 286.96875 213.53125 L 241.148438 92.140625 L 345 52.945312 Z M 390.816406 174.335938 " clip-rule="nonzero"/></clipPath><clipPath id="id68"><path d="M 390.816406 174.335938 L 133.300781 271.535156 L 77.949219 124.882812 L 335.464844 27.683594 Z M 390.816406 174.335938 " clip-rule="nonzero"/></clipPath><clipPath id="id69"><path d="M 390.816406 174.335938 L 133.300781 271.535156 L 77.949219 124.882812 L 335.464844 27.683594 Z M 390.816406 174.335938 " clip-rule="nonzero"/></clipPath><clipPath id="id70"><path d="M 280 73 L 345 73 L 345 135 L 280 135 Z M 280 73 " clip-rule="nonzero"/></clipPath><clipPath id="id71"><path d="M 390.816406 174.335938 L 286.96875 213.53125 L 241.148438 92.140625 L 345 52.945312 Z M 390.816406 174.335938 " clip-rule="nonzero"/></clipPath><clipPath id="id72"><path d="M 390.816406 174.335938 L 133.300781 271.535156 L 77.949219 124.882812 L 335.464844 27.683594 Z M 390.816406 174.335938 " clip-rule="nonzero"/></clipPath><clipPath id="id73"><path d="M 390.816406 174.335938 L 133.300781 271.535156 L 77.949219 124.882812 L 335.464844 27.683594 Z M 390.816406 174.335938 " clip-rule="nonzero"/></clipPath></defs><g clip-path="url(#id1)"><path fill="rgb(100%, 100%, 100%)" d="M 328.316406 254.503906 C 328.316406 264.9375 313.425781 274.675781 286.742188 281.832031 C 260.0625 288.988281 224.941406 292.9375 187.464844 292.9375 C 149.988281 292.9375 114.695312 289.011719 88.1875 281.832031 C 61.679688 274.652344 46.589844 264.9375 46.589844 254.503906 C 46.589844 243.375 63.046875 233.214844 92.902344 225.859375 C 92.902344 224.792969 92.902344 223.722656 93.027344 222.65625 C 93.589844 208.542969 94.171875 194.464844 94.765625 180.421875 C 94.59375 179.898438 94.417969 179.402344 94.269531 178.878906 C 92.480469 172.222656 95.386719 165.835938 99.382812 160.644531 C 103.625 155.210938 108.507812 150.433594 114.027344 146.308594 C 119.546875 142.179688 125.511719 138.851562 131.921875 136.324219 L 132.117188 136.324219 C 132.210938 135.085938 132.46875 133.886719 132.886719 132.722656 C 133.414062 131.332031 134.160156 130.074219 135.121094 128.945312 L 129.511719 124.101562 C 128.992188 123.679688 129.511719 122.980469 129.984375 122.933594 C 132.664062 122.566406 135.328125 122.648438 137.976562 123.179688 C 137.703125 120.695312 137.429688 118.210938 137.132812 115.875 C 137.132812 115.230469 137.925781 115.03125 138.324219 115.378906 L 145.769531 122.085938 C 147.46875 119.578125 149.488281 117.359375 151.824219 115.429688 C 152.050781 115.234375 152.300781 115.191406 152.574219 115.308594 C 152.851562 115.421875 152.996094 115.628906 153.015625 115.925781 C 153.015625 117.988281 153.015625 120.027344 153.015625 122.085938 L 161.230469 119.976562 C 161.726562 119.976562 162.273438 120.324219 162.074219 120.820312 C 161.328125 123.144531 160.0625 125.140625 158.277344 126.808594 C 158.917969 127.609375 159.449219 128.480469 159.867188 129.417969 C 167.320312 126.882812 174.980469 125.742188 182.851562 125.988281 C 182.824219 124.820312 183.03125 123.691406 183.46875 122.609375 C 183.789062 121.824219 184.207031 121.097656 184.722656 120.429688 C 185.242188 119.757812 185.839844 119.171875 186.515625 118.664062 C 187.195312 118.160156 187.929688 117.753906 188.71875 117.449219 C 189.507812 117.144531 190.320312 116.953125 191.164062 116.871094 C 191.253906 116.777344 191.359375 116.71875 191.488281 116.695312 C 193.316406 116.421875 195.097656 116.621094 196.824219 117.292969 C 198.230469 115.667969 199.789062 114.199219 201.496094 112.894531 C 203.203125 111.585938 205.023438 110.464844 206.957031 109.527344 C 208.894531 108.59375 210.902344 107.863281 212.988281 107.339844 C 215.070312 106.8125 217.1875 106.503906 219.335938 106.410156 L 219.457031 106.410156 C 219.59375 106.292969 219.75 106.242188 219.929688 106.261719 C 221.65625 106.359375 223.285156 106.808594 224.820312 107.609375 C 226.351562 108.414062 227.648438 109.496094 228.714844 110.859375 C 229.253906 111.566406 229.710938 112.328125 230.078125 113.140625 C 230.449219 113.949219 230.726562 114.792969 230.90625 115.664062 C 231.089844 116.535156 231.175781 117.417969 231.160156 118.308594 C 231.148438 119.199219 231.035156 120.078125 230.824219 120.945312 C 230.773438 121.125 230.664062 121.261719 230.5 121.351562 C 230.335938 121.445312 230.164062 121.464844 229.980469 121.417969 C 229.226562 121.265625 228.484375 121.054688 227.761719 120.78125 C 227.042969 120.507812 226.347656 120.179688 225.679688 119.789062 C 225.011719 119.402344 224.382812 118.960938 223.789062 118.46875 C 223.195312 117.972656 222.644531 117.433594 222.140625 116.851562 C 221.636719 116.265625 221.183594 115.644531 220.78125 114.984375 C 220.378906 114.324219 220.035156 113.636719 219.75 112.917969 C 219.460938 112.203125 219.234375 111.46875 219.070312 110.710938 C 218.902344 109.957031 218.800781 109.195312 218.761719 108.421875 C 217.632812 109.660156 216.71875 111.039062 216.019531 112.5625 C 215.320312 114.085938 214.871094 115.679688 214.667969 117.34375 C 214.097656 120.101562 213.675781 122.90625 213.351562 125.691406 C 225.351562 126.222656 236.933594 128.707031 248.101562 133.144531 C 254.480469 135.683594 260.546875 138.839844 266.292969 142.609375 C 269.078125 144.261719 271.617188 146.226562 273.917969 148.503906 C 276.222656 150.78125 278.210938 153.304688 279.894531 156.074219 C 281 158.117188 281.769531 160.277344 282.203125 162.558594 C 282.382812 163.804688 282.441406 165.054688 282.375 166.308594 C 282.375 167.527344 282.050781 168.792969 282.078125 169.960938 C 282.078125 172.792969 282.078125 175.625 282.078125 178.457031 C 282.078125 190.648438 281.960938 202.847656 281.730469 215.054688 C 281.730469 218.628906 281.53125 222.207031 281.433594 225.761719 C 311.738281 233.113281 328.316406 243.300781 328.316406 254.503906 Z M 328.316406 254.503906 " fill-opacity="1" fill-rule="nonzero"/><path fill="rgb(87.449646%, 52.549744%, 42.749023%)" d="M 140.035156 135.328125 L 140.035156 135.15625 C 140 135.066406 140 134.972656 140.035156 134.882812 C 140.070312 134.796875 140.117188 134.722656 140.183594 134.660156 C 140.328125 134.558594 140.484375 134.492188 140.65625 134.460938 L 140.90625 134.460938 C 141.019531 134.421875 141.136719 134.421875 141.253906 134.460938 L 141.402344 134.460938 C 141.492188 134.550781 141.550781 134.65625 141.574219 134.78125 L 141.574219 134.957031 C 141.597656 135.046875 141.597656 135.140625 141.574219 135.230469 C 141.542969 135.316406 141.492188 135.390625 141.425781 135.453125 C 141.367188 135.523438 141.292969 135.574219 141.203125 135.601562 L 140.804688 135.601562 C 140.691406 135.636719 140.574219 135.636719 140.457031 135.601562 L 140.335938 135.601562 C 140.203125 135.546875 140.101562 135.457031 140.035156 135.328125 Z M 150.734375 132.84375 C 150.925781 132.84375 151.089844 132.777344 151.226562 132.640625 C 151.359375 132.503906 151.429688 132.339844 151.429688 132.148438 C 151.429688 131.957031 151.359375 131.792969 151.226562 131.65625 C 151.089844 131.523438 150.925781 131.453125 150.734375 131.453125 C 150.449219 131.589844 150.316406 131.816406 150.34375 132.132812 C 150.367188 132.449219 150.53125 132.652344 150.832031 132.746094 Z M 151.230469 138.683594 C 151.421875 138.683594 151.585938 138.617188 151.722656 138.480469 C 151.855469 138.34375 151.925781 138.179688 151.925781 137.988281 C 151.925781 137.796875 151.855469 137.632812 151.722656 137.496094 C 151.585938 137.359375 151.421875 137.292969 151.230469 137.292969 C 150.957031 137.414062 150.820312 137.625 150.820312 137.925781 C 150.820312 138.222656 150.957031 138.4375 151.230469 138.558594 Z M 141.078125 141.167969 C 141.011719 141.230469 140.960938 141.304688 140.929688 141.390625 C 140.90625 141.484375 140.90625 141.574219 140.929688 141.664062 L 140.929688 141.839844 C 140.972656 141.960938 141.039062 142.070312 141.128906 142.160156 C 141.242188 142.195312 141.359375 142.195312 141.476562 142.160156 L 141.601562 142.160156 C 141.691406 142.1875 141.78125 142.1875 141.871094 142.160156 C 141.949219 142.179688 142.023438 142.179688 142.097656 142.160156 C 142.164062 142.097656 142.210938 142.023438 142.246094 141.9375 C 142.269531 141.847656 142.269531 141.753906 142.246094 141.664062 L 142.246094 141.492188 C 142.222656 141.363281 142.164062 141.257812 142.070312 141.167969 L 141.921875 141.167969 C 141.808594 141.128906 141.691406 141.128906 141.574219 141.167969 Z M 149.121094 147.082031 C 149.3125 147.082031 149.476562 147.011719 149.613281 146.875 C 149.746094 146.742188 149.816406 146.578125 149.816406 146.386719 C 149.816406 146.191406 149.746094 146.027344 149.613281 145.894531 C 149.476562 145.757812 149.3125 145.6875 149.121094 145.6875 C 148.882812 145.820312 148.761719 146.023438 148.761719 146.296875 C 148.761719 146.570312 148.882812 146.773438 149.121094 146.90625 Z M 144.40625 149.167969 L 144.15625 149.167969 C 144.0625 149.1875 143.988281 149.238281 143.933594 149.316406 C 143.867188 149.378906 143.816406 149.453125 143.785156 149.539062 C 143.757812 149.632812 143.757812 149.722656 143.785156 149.8125 L 143.785156 149.988281 C 143.824219 150.109375 143.890625 150.21875 143.984375 150.308594 L 144.105469 150.308594 C 144.222656 150.332031 144.339844 150.332031 144.453125 150.308594 L 144.828125 150.308594 C 144.917969 150.335938 145.007812 150.335938 145.097656 150.308594 C 145.183594 150.289062 145.261719 150.25 145.324219 150.1875 C 145.390625 150.121094 145.4375 150.046875 145.472656 149.960938 C 145.496094 149.871094 145.496094 149.78125 145.472656 149.6875 L 145.472656 149.492188 C 145.441406 149.375 145.382812 149.273438 145.296875 149.191406 L 145.148438 149.191406 C 145.03125 149.15625 144.917969 149.15625 144.800781 149.191406 Z M 148.523438 152.347656 C 148.640625 152.371094 148.757812 152.371094 148.871094 152.347656 L 149.121094 152.347656 C 149.210938 152.375 149.300781 152.375 149.394531 152.347656 L 149.617188 152.222656 C 149.683594 152.160156 149.734375 152.085938 149.765625 152 C 149.789062 151.910156 149.789062 151.816406 149.765625 151.726562 L 149.765625 151.476562 C 149.726562 151.367188 149.667969 151.269531 149.589844 151.179688 L 149.441406 151.179688 C 149.328125 151.144531 149.210938 151.144531 149.09375 151.179688 L 148.597656 151.179688 C 148.503906 151.199219 148.429688 151.25 148.375 151.328125 C 148.308594 151.390625 148.257812 151.464844 148.226562 151.550781 C 148.199219 151.644531 148.199219 151.734375 148.226562 151.824219 L 148.226562 152 C 148.3125 152.078125 148.414062 152.136719 148.523438 152.171875 Z M 154.332031 144.097656 C 154.523438 144.097656 154.6875 144.03125 154.824219 143.894531 C 154.960938 143.757812 155.027344 143.597656 155.027344 143.402344 C 155.027344 143.210938 154.960938 143.046875 154.824219 142.910156 C 154.6875 142.777344 154.523438 142.707031 154.332031 142.707031 C 154.09375 142.839844 153.972656 143.042969 153.972656 143.316406 C 153.972656 143.589844 154.09375 143.792969 154.332031 143.925781 Z M 155.695312 134.660156 C 155.890625 134.660156 156.054688 134.589844 156.1875 134.453125 C 156.324219 134.320312 156.390625 134.15625 156.390625 133.964844 C 156.390625 133.769531 156.324219 133.605469 156.1875 133.472656 C 156.054688 133.335938 155.890625 133.265625 155.695312 133.265625 C 155.46875 133.417969 155.363281 133.632812 155.386719 133.90625 C 155.410156 134.179688 155.546875 134.375 155.796875 134.484375 Z M 146.042969 137.144531 C 146.160156 137.175781 146.273438 137.175781 146.390625 137.144531 L 146.785156 137.144531 L 147.011719 136.992188 C 147.078125 136.929688 147.128906 136.855469 147.160156 136.769531 C 147.183594 136.679688 147.183594 136.589844 147.160156 136.496094 L 147.160156 136.324219 C 147.125 136.203125 147.066406 136.09375 146.984375 136 L 146.835938 136 C 146.722656 135.964844 146.605469 135.964844 146.488281 136 L 146.363281 136 C 146.28125 135.976562 146.199219 135.976562 146.117188 136 C 146.03125 136.019531 145.957031 136.0625 145.894531 136.125 C 145.828125 136.1875 145.777344 136.261719 145.746094 136.347656 C 145.722656 136.4375 145.722656 136.53125 145.746094 136.621094 L 145.746094 136.796875 C 145.828125 136.890625 145.925781 136.964844 146.042969 137.019531 Z M 144.15625 129.691406 C 144.347656 129.691406 144.511719 129.621094 144.648438 129.484375 C 144.785156 129.351562 144.851562 129.1875 144.851562 128.996094 C 144.851562 128.800781 144.785156 128.636719 144.648438 128.503906 C 144.511719 128.367188 144.347656 128.296875 144.15625 128.296875 C 144.003906 128.339844 143.882812 128.421875 143.789062 128.546875 C 143.691406 128.671875 143.644531 128.8125 143.644531 128.96875 C 143.644531 129.125 143.691406 129.265625 143.789062 129.390625 C 143.882812 129.515625 144.003906 129.597656 144.15625 129.640625 Z M 136.710938 139.75 C 136.902344 139.75 137.066406 139.683594 137.203125 139.546875 C 137.335938 139.410156 137.40625 139.25 137.40625 139.054688 C 137.40625 138.863281 137.335938 138.699219 137.203125 138.5625 C 137.066406 138.429688 136.902344 138.359375 136.710938 138.359375 C 136.558594 138.402344 136.4375 138.484375 136.34375 138.609375 C 136.246094 138.734375 136.199219 138.875 136.199219 139.03125 C 136.199219 139.1875 136.246094 139.328125 136.34375 139.453125 C 136.4375 139.578125 136.558594 139.660156 136.710938 139.703125 Z M 266.589844 151.203125 L 261.875 155.652344 C 263.292969 157.15625 264.253906 158.910156 264.753906 160.917969 C 265.136719 162.617188 265.1875 164.328125 264.90625 166.046875 C 264.621094 167.765625 264.023438 169.371094 263.117188 170.855469 C 259.46875 177.042969 252.492188 179.898438 245.742188 181.089844 C 242.640625 181.636719 238.445312 182.632812 235.8125 180.519531 C 233.183594 178.410156 233.332031 174.832031 233.332031 171.898438 C 233.605469 164.867188 235.8125 157.488281 241.523438 153.042969 C 242.707031 152.136719 244.003906 151.4375 245.414062 150.945312 C 246.820312 150.453125 248.269531 150.191406 249.761719 150.160156 C 249.417969 147.664062 249.484375 145.179688 249.960938 142.707031 C 250.050781 142.417969 250.242188 142.253906 250.546875 142.21875 C 250.847656 142.183594 251.074219 142.296875 251.226562 142.558594 L 255.074219 148.746094 C 256.878906 147.0625 258.832031 145.570312 260.929688 144.273438 C 261.503906 143.925781 262.023438 144.496094 261.949219 145.066406 C 261.691406 147.027344 261.210938 148.933594 260.507812 150.78125 C 262.300781 150.257812 264.128906 149.984375 265.996094 149.960938 C 266.144531 149.9375 266.289062 149.957031 266.425781 150.027344 C 266.566406 150.09375 266.667969 150.199219 266.738281 150.335938 C 266.804688 150.472656 266.824219 150.617188 266.800781 150.769531 C 266.773438 150.921875 266.703125 151.050781 266.589844 151.15625 Z M 258.375 154.707031 C 258.257812 154.804688 258.121094 154.855469 257.964844 154.855469 C 257.8125 154.855469 257.675781 154.804688 257.554688 154.707031 C 256.433594 153.5625 255.121094 152.710938 253.617188 152.160156 C 252.113281 151.605469 250.5625 151.40625 248.96875 151.550781 C 247.332031 151.722656 245.78125 152.175781 244.308594 152.910156 C 242.839844 153.644531 241.546875 154.617188 240.429688 155.824219 C 235.839844 160.570312 234.546875 167.503906 234.597656 173.886719 C 234.550781 175.351562 234.816406 176.761719 235.390625 178.109375 C 235.75 178.769531 236.246094 179.296875 236.875 179.699219 C 237.507812 180.101562 238.195312 180.324219 238.941406 180.371094 C 240.535156 180.46875 242.113281 180.371094 243.683594 180.074219 C 245.351562 179.835938 247.007812 179.515625 248.644531 179.105469 C 254.503906 177.613281 260.410156 174.308594 262.816406 168.445312 C 263.09375 167.84375 263.3125 167.222656 263.46875 166.578125 C 263.628906 165.933594 263.730469 165.28125 263.765625 164.621094 C 263.804688 163.960938 263.78125 163.300781 263.699219 162.644531 C 263.613281 161.984375 263.46875 161.34375 263.265625 160.710938 C 263.0625 160.082031 262.800781 159.476562 262.484375 158.894531 C 262.167969 158.3125 261.800781 157.761719 261.382812 157.25 C 260.964844 156.738281 260.503906 156.265625 259.996094 155.839844 C 259.492188 155.410156 258.949219 155.035156 258.375 154.707031 Z M 264.257812 151.453125 C 262.675781 151.628906 261.136719 151.992188 259.640625 152.546875 C 258.996094 152.792969 258.648438 152.023438 258.847656 151.527344 C 259.5625 149.84375 260.097656 148.105469 260.460938 146.308594 C 258.6875 147.488281 257.035156 148.8125 255.496094 150.285156 C 255.417969 150.355469 255.328125 150.410156 255.226562 150.441406 C 255.125 150.472656 255.019531 150.480469 254.914062 150.464844 C 254.808594 150.449219 254.710938 150.414062 254.625 150.359375 C 254.535156 150.300781 254.460938 150.226562 254.402344 150.136719 C 253.238281 148.371094 252.070312 146.609375 250.929688 144.84375 C 250.691406 146.601562 250.691406 148.355469 250.929688 150.113281 C 252.3125 150.210938 253.632812 150.546875 254.894531 151.125 C 256.152344 151.703125 257.273438 152.480469 258.25 153.464844 C 258.433594 153.402344 258.613281 153.402344 258.796875 153.464844 C 259.539062 153.804688 260.226562 154.234375 260.855469 154.757812 Z M 213.699219 136.820312 L 213.824219 136.820312 L 214.046875 137.019531 L 214.445312 137.441406 C 214.515625 137.515625 214.574219 137.597656 214.617188 137.691406 C 214.738281 137.851562 214.835938 138.027344 214.917969 138.210938 L 214.917969 138.535156 C 214.988281 138.71875 215.046875 138.910156 215.089844 139.105469 L 215.089844 139.554688 C 215.101562 139.769531 215.101562 139.984375 215.089844 140.199219 C 215.089844 140.390625 215.15625 140.554688 215.292969 140.691406 C 215.429688 140.828125 215.59375 140.894531 215.785156 140.894531 C 215.980469 140.902344 216.144531 140.835938 216.285156 140.699219 C 216.421875 140.558594 216.488281 140.394531 216.480469 140.199219 C 216.488281 139.21875 216.277344 138.289062 215.839844 137.414062 C 215.402344 136.539062 214.785156 135.808594 213.996094 135.230469 C 213.835938 135.128906 213.660156 135.101562 213.472656 135.152344 C 213.285156 135.199219 213.148438 135.308594 213.054688 135.480469 C 212.960938 135.644531 212.9375 135.816406 212.984375 136 C 213.035156 136.183594 213.140625 136.324219 213.304688 136.421875 Z M 215.6875 143.03125 C 215.492188 143.03125 215.328125 143.097656 215.195312 143.234375 C 215.058594 143.371094 214.992188 143.535156 214.992188 143.726562 C 214.992188 143.917969 215.058594 144.082031 215.195312 144.21875 C 215.328125 144.355469 215.492188 144.421875 215.6875 144.421875 C 215.878906 144.421875 216.042969 144.355469 216.175781 144.21875 C 216.3125 144.082031 216.378906 143.917969 216.378906 143.726562 C 216.378906 143.535156 216.3125 143.371094 216.175781 143.234375 C 216.042969 143.097656 215.878906 143.03125 215.6875 143.03125 Z M 198.164062 124.523438 C 198.414062 125.351562 198.414062 126.179688 198.164062 127.007812 C 198.113281 127.191406 198.132812 127.367188 198.230469 127.535156 C 198.324219 127.703125 198.460938 127.8125 198.648438 127.863281 C 198.832031 127.914062 199.007812 127.894531 199.175781 127.796875 C 199.34375 127.703125 199.453125 127.5625 199.503906 127.378906 C 199.671875 126.867188 199.761719 126.339844 199.78125 125.796875 C 199.796875 125.257812 199.738281 124.726562 199.605469 124.203125 C 199.472656 123.679688 199.265625 123.183594 198.992188 122.71875 C 198.71875 122.253906 198.382812 121.835938 197.988281 121.464844 C 197.855469 121.335938 197.691406 121.269531 197.503906 121.269531 C 197.316406 121.269531 197.15625 121.335938 197.023438 121.464844 C 196.882812 121.601562 196.8125 121.769531 196.8125 121.964844 C 196.8125 122.160156 196.882812 122.324219 197.023438 122.460938 C 197.605469 123.035156 197.988281 123.722656 198.164062 124.523438 Z M 328.316406 254.503906 C 328.316406 264.9375 313.425781 274.675781 286.742188 281.832031 C 260.0625 288.988281 224.941406 292.9375 187.464844 292.9375 C 149.988281 292.9375 114.695312 289.011719 88.1875 281.832031 C 61.679688 274.652344 46.589844 264.9375 46.589844 254.503906 C 46.589844 243.375 63.046875 233.214844 92.902344 225.859375 C 92.902344 224.792969 92.902344 223.722656 93.027344 222.65625 C 93.589844 208.542969 94.171875 194.464844 94.765625 180.421875 C 94.59375 179.898438 94.417969 179.402344 94.269531 178.878906 C 92.480469 172.222656 95.386719 165.835938 99.382812 160.644531 C 103.625 155.210938 108.507812 150.433594 114.027344 146.308594 C 119.546875 142.179688 125.511719 138.851562 131.921875 136.324219 L 132.117188 136.324219 C 132.210938 135.085938 132.46875 133.886719 132.886719 132.722656 C 133.414062 131.332031 134.160156 130.074219 135.121094 128.945312 L 129.511719 124.101562 C 128.992188 123.679688 129.511719 122.980469 129.984375 122.933594 C 132.664062 122.566406 135.328125 122.648438 137.976562 123.179688 C 137.703125 120.695312 137.429688 118.210938 137.132812 115.875 C 137.132812 115.230469 137.925781 115.03125 138.324219 115.378906 L 145.769531 122.085938 C 147.46875 119.578125 149.488281 117.359375 151.824219 115.429688 C 152.050781 115.234375 152.300781 115.191406 152.574219 115.308594 C 152.851562 115.421875 152.996094 115.628906 153.015625 115.925781 C 153.015625 117.988281 153.015625 120.027344 153.015625 122.085938 L 161.230469 119.976562 C 161.726562 119.976562 162.273438 120.324219 162.074219 120.820312 C 161.328125 123.144531 160.0625 125.140625 158.277344 126.808594 C 158.917969 127.609375 159.449219 128.480469 159.867188 129.417969 C 167.320312 126.882812 174.980469 125.742188 182.851562 125.988281 C 182.824219 124.820312 183.03125 123.691406 183.46875 122.609375 C 183.789062 121.824219 184.207031 121.097656 184.722656 120.429688 C 185.242188 119.757812 185.839844 119.171875 186.515625 118.664062 C 187.195312 118.160156 187.929688 117.753906 188.71875 117.449219 C 189.507812 117.144531 190.320312 116.953125 191.164062 116.871094 C 191.253906 116.777344 191.359375 116.71875 191.488281 116.695312 C 193.316406 116.421875 195.097656 116.621094 196.824219 117.292969 C 198.230469 115.667969 199.789062 114.199219 201.496094 112.894531 C 203.203125 111.585938 205.023438 110.464844 206.957031 109.527344 C 208.894531 108.59375 210.902344 107.863281 212.988281 107.339844 C 215.070312 106.8125 217.1875 106.503906 219.335938 106.410156 L 219.457031 106.410156 C 219.59375 106.292969 219.75 106.242188 219.929688 106.261719 C 221.65625 106.359375 223.285156 106.808594 224.820312 107.609375 C 226.351562 108.414062 227.648438 109.496094 228.714844 110.859375 C 229.253906 111.566406 229.710938 112.328125 230.078125 113.140625 C 230.449219 113.949219 230.726562 114.792969 230.90625 115.664062 C 231.089844 116.535156 231.175781 117.417969 231.160156 118.308594 C 231.148438 119.199219 231.035156 120.078125 230.824219 120.945312 C 230.773438 121.125 230.664062 121.261719 230.5 121.351562 C 230.335938 121.445312 230.164062 121.464844 229.980469 121.417969 C 229.226562 121.265625 228.484375 121.054688 227.761719 120.78125 C 227.042969 120.507812 226.347656 120.179688 225.679688 119.789062 C 225.011719 119.402344 224.382812 118.960938 223.789062 118.46875 C 223.195312 117.972656 222.644531 117.433594 222.140625 116.851562 C 221.636719 116.265625 221.183594 115.644531 220.78125 114.984375 C 220.378906 114.324219 220.035156 113.636719 219.75 112.917969 C 219.460938 112.203125 219.234375 111.46875 219.070312 110.710938 C 218.902344 109.957031 218.800781 109.195312 218.761719 108.421875 C 217.632812 109.660156 216.71875 111.039062 216.019531 112.5625 C 215.320312 114.085938 214.871094 115.679688 214.667969 117.34375 C 214.097656 120.101562 213.675781 122.90625 213.351562 125.691406 C 225.351562 126.222656 236.933594 128.707031 248.101562 133.144531 C 254.480469 135.683594 260.546875 138.839844 266.292969 142.609375 C 269.078125 144.261719 271.617188 146.226562 273.917969 148.503906 C 276.222656 150.78125 278.210938 153.304688 279.894531 156.074219 C 281 158.117188 281.769531 160.277344 282.203125 162.558594 C 282.382812 163.804688 282.441406 165.054688 282.375 166.308594 C 282.375 167.527344 282.050781 168.792969 282.078125 169.960938 C 282.078125 172.792969 282.078125 175.625 282.078125 178.457031 C 282.078125 190.648438 281.960938 202.847656 281.730469 215.054688 C 281.730469 218.628906 281.53125 222.207031 281.433594 225.761719 C 311.738281 233.113281 328.316406 243.300781 328.316406 254.503906 Z M 220.152344 107.679688 C 220.148438 108.375 220.203125 109.066406 220.316406 109.75 C 220.425781 110.4375 220.59375 111.109375 220.816406 111.769531 C 221.039062 112.429688 221.316406 113.0625 221.644531 113.675781 C 221.972656 114.289062 222.351562 114.871094 222.777344 115.421875 C 223.203125 115.972656 223.671875 116.480469 224.179688 116.953125 C 224.691406 117.425781 225.238281 117.851562 225.816406 118.234375 C 226.398438 118.617188 227.007812 118.945312 227.644531 119.226562 C 228.28125 119.503906 228.9375 119.730469 229.609375 119.902344 C 229.863281 118.453125 229.816406 117.011719 229.472656 115.582031 C 229.125 114.152344 228.511719 112.851562 227.625 111.679688 C 226.710938 110.519531 225.605469 109.589844 224.308594 108.894531 C 223.007812 108.199219 221.621094 107.792969 220.152344 107.679688 Z M 198.136719 117.890625 C 199.113281 118.449219 199.972656 119.15625 200.707031 120.007812 C 201.445312 120.859375 202.019531 121.808594 202.433594 122.859375 C 202.816406 123.824219 203.046875 124.828125 203.128906 125.863281 C 204.664062 125.863281 206.230469 125.714844 207.792969 125.691406 L 211.9375 125.691406 C 212.308594 122.609375 212.78125 119.554688 213.453125 116.523438 C 213.949219 113.328125 215.226562 110.476562 217.273438 107.976562 C 215.445312 108.1875 213.648438 108.558594 211.890625 109.097656 C 210.128906 109.632812 208.429688 110.324219 206.796875 111.171875 C 205.160156 112.019531 203.617188 113.007812 202.160156 114.136719 C 200.707031 115.265625 199.367188 116.515625 198.136719 117.890625 Z M 188.0625 132.148438 C 191.289062 133.863281 195.507812 132.597656 198.609375 131.007812 C 199.414062 130.65625 200.089844 130.144531 200.640625 129.460938 C 201.195312 128.78125 201.558594 128.015625 201.738281 127.15625 C 201.988281 125.375 201.640625 123.71875 200.695312 122.1875 C 199.835938 120.730469 198.652344 119.621094 197.144531 118.859375 C 196.894531 118.9375 196.679688 118.878906 196.5 118.683594 C 195.953125 118.011719 193.523438 117.839844 192.703125 117.9375 C 191.441406 118.078125 190.234375 118.410156 189.078125 118.933594 C 187.949219 119.402344 186.976562 120.09375 186.160156 121.007812 C 185.347656 121.925781 184.773438 122.972656 184.4375 124.148438 C 184.257812 124.921875 184.210938 125.703125 184.289062 126.496094 C 184.367188 127.285156 184.570312 128.039062 184.898438 128.761719 C 185.222656 129.488281 185.660156 130.136719 186.199219 130.71875 C 186.742188 131.296875 187.363281 131.773438 188.0625 132.148438 Z M 146.09375 123.777344 C 150.007812 123.625 153.78125 124.289062 157.410156 125.765625 C 158.664062 124.59375 159.648438 123.226562 160.363281 121.664062 L 152.644531 123.652344 C 152.539062 123.679688 152.433594 123.679688 152.328125 123.660156 C 152.222656 123.636719 152.125 123.59375 152.039062 123.53125 C 151.953125 123.464844 151.882812 123.382812 151.832031 123.289062 C 151.78125 123.191406 151.753906 123.089844 151.75 122.980469 C 151.75 121.144531 151.75 119.304688 151.75 117.441406 C 149.84375 119.234375 148.1875 121.238281 146.785156 123.453125 C 146.628906 123.722656 146.398438 123.832031 146.09375 123.777344 Z M 136.164062 127.925781 C 136.855469 127.25 137.609375 126.65625 138.421875 126.136719 C 140.71875 124.761719 143.199219 123.980469 145.867188 123.800781 C 145.683594 123.804688 145.515625 123.746094 145.371094 123.628906 L 138.722656 117.589844 L 139.464844 124.074219 C 139.464844 124.523438 138.96875 124.820312 138.570312 124.722656 C 136.300781 124.191406 134 124.003906 131.671875 124.148438 Z M 134.75 143.777344 C 135.921875 146.695312 137.449219 149.410156 139.339844 151.925781 C 140.027344 153.144531 140.945312 154.160156 142.085938 154.96875 C 143.230469 155.777344 144.492188 156.304688 145.867188 156.546875 C 152.320312 156.917969 155.648438 149.886719 157.65625 144.871094 C 159.84375 139.355469 161.183594 132.449219 156.988281 127.480469 C 156.921875 127.371094 156.871094 127.253906 156.839844 127.132812 C 150.757812 124.820312 143.535156 123.949219 138.027344 128.125 C 133.0625 131.800781 132.589844 138.261719 134.675781 143.777344 Z M 94.320312 225.039062 C 95.015625 225.285156 95.730469 225.355469 96.464844 225.25 C 97.195312 225.144531 97.863281 224.878906 98.464844 224.445312 C 99.828125 223.394531 101.085938 222.226562 102.234375 220.941406 C 102.671875 220.402344 103.179688 219.9375 103.753906 219.550781 C 104.328125 219.160156 104.949219 218.867188 105.613281 218.664062 C 106.277344 218.464844 106.953125 218.363281 107.648438 218.367188 C 108.34375 218.367188 109.019531 218.472656 109.683594 218.679688 C 110.910156 219.375 111.957031 220.285156 112.820312 221.40625 C 113.679688 222.527344 114.289062 223.769531 114.644531 225.140625 C 115.117188 226.554688 115.796875 227.867188 116.675781 229.070312 C 117.558594 230.277344 118.601562 231.316406 119.808594 232.195312 C 120.964844 232.984375 122.214844 233.566406 123.5625 233.945312 C 124.90625 234.324219 126.28125 234.476562 127.675781 234.40625 L 127.949219 234.40625 C 127.652344 222.183594 127.949219 209.933594 128.46875 197.738281 C 120.800781 197.066406 112.859375 196.222656 105.984375 192.496094 C 103.921875 191.410156 102.046875 190.066406 100.359375 188.457031 C 98.671875 186.847656 97.238281 185.039062 96.054688 183.03125 L 95.3125 201.4375 C 94.988281 209.015625 94.691406 216.59375 94.367188 224.171875 C 94.34375 224.492188 94.320312 224.765625 94.320312 225.039062 Z M 129.363281 262.777344 C 128.992188 258.453125 128.667969 254.132812 128.421875 249.808594 C 128.148438 245.089844 127.972656 240.394531 127.851562 235.671875 C 127.75 235.695312 127.652344 235.695312 127.550781 235.671875 C 125.957031 235.78125 124.386719 235.617188 122.84375 235.1875 C 121.304688 234.757812 119.878906 234.082031 118.566406 233.164062 C 116.269531 231.425781 114.613281 229.207031 113.605469 226.503906 C 112.535156 223.871094 111.246094 219.824219 107.820312 219.648438 C 104.394531 219.476562 102.410156 223.101562 100.125 224.941406 C 99.332031 225.65625 98.417969 226.152344 97.382812 226.417969 C 96.347656 226.6875 95.3125 226.699219 94.269531 226.457031 L 93.871094 235.449219 C 93.640625 237.195312 93.664062 238.9375 93.941406 240.675781 C 94.222656 242.414062 94.742188 244.074219 95.511719 245.660156 C 97.292969 248.285156 99.542969 250.414062 102.261719 252.046875 C 105.023438 253.921875 107.910156 255.578125 110.921875 257.015625 C 116.789062 259.839844 122.933594 261.757812 129.363281 262.777344 Z M 129.089844 216.492188 C 129.089844 221.460938 129.089844 226.429688 129.089844 231.398438 C 132.699219 229.609375 136.289062 227.796875 139.863281 225.960938 C 153.378906 218.96875 166.683594 211.515625 179.773438 203.601562 C 179.90625 203.550781 180.035156 203.550781 180.167969 203.601562 C 180.046875 202.207031 179.921875 200.816406 179.773438 199.425781 L 179.375 199.425781 C 179.183594 199.425781 179.019531 199.359375 178.882812 199.222656 C 178.746094 199.085938 178.679688 198.921875 178.679688 198.730469 C 178.679688 198.539062 178.746094 198.375 178.882812 198.238281 C 179.019531 198.101562 179.183594 198.035156 179.375 198.035156 C 180.195312 195.101562 181.039062 192.148438 181.855469 189.242188 C 182.15625 188.246094 182.476562 187.253906 182.773438 186.257812 C 179.003906 188.570312 175.179688 190.878906 171.359375 193.140625 C 157.542969 201.371094 143.453125 209.171875 129.089844 216.542969 Z M 140.433594 209.039062 C 154.679688 201.4375 168.695312 193.414062 182.476562 184.96875 C 182.609375 184.894531 182.746094 184.867188 182.894531 184.890625 C 183.042969 184.914062 183.167969 184.980469 183.273438 185.089844 C 186.085938 176.445312 189.253906 167.925781 192.777344 159.527344 C 188.410156 161.8125 184.066406 164.15625 179.746094 166.558594 C 162.460938 176.207031 145.78125 186.816406 129.710938 198.382812 C 129.464844 202.980469 129.289062 207.574219 129.164062 212.171875 C 129.164062 213.113281 129.164062 214.035156 129.164062 214.953125 C 132.9375 213.015625 136.695312 211.042969 140.433594 209.039062 Z M 129.6875 247.152344 C 133.113281 244.867188 136.585938 242.605469 140.0625 240.394531 C 153.464844 231.847656 167.1875 223.847656 181.238281 216.394531 C 180.964844 212.644531 180.640625 208.941406 180.292969 205.117188 C 176.667969 207.300781 173.019531 209.445312 169.347656 211.550781 C 156.210938 219.203125 142.816406 226.339844 129.164062 232.964844 C 129.265625 237.734375 129.4375 242.457031 129.6875 247.152344 Z M 181.957031 226.878906 C 181.808594 223.871094 181.609375 220.867188 181.410156 217.886719 C 177.589844 219.921875 173.789062 221.992188 170.019531 224.097656 C 156.300781 231.78125 142.882812 239.996094 129.761719 248.742188 C 130.007812 253.335938 130.332031 257.910156 130.703125 262.453125 L 140.90625 255.324219 L 181.160156 226.777344 C 181.285156 226.675781 181.421875 226.636719 181.582031 226.65625 C 181.738281 226.675781 181.863281 226.75 181.957031 226.878906 Z M 280.316406 222.679688 C 279.183594 222.921875 278.0625 222.886719 276.953125 222.570312 C 275.839844 222.253906 274.867188 221.695312 274.035156 220.890625 C 272.296875 219.238281 270.78125 217.398438 269.492188 215.375 C 268.851562 214.316406 268.007812 213.449219 266.96875 212.777344 C 265.925781 212.109375 264.792969 211.699219 263.5625 211.550781 C 262.277344 211.648438 261.082031 212.019531 259.964844 212.664062 C 258.851562 213.308594 257.933594 214.164062 257.207031 215.226562 C 254.402344 219.050781 253.707031 224.019531 250.855469 227.824219 C 250.292969 228.652344 249.613281 229.375 248.824219 229.992188 C 248.03125 230.609375 247.164062 231.085938 246.222656 231.429688 C 245.277344 231.769531 244.304688 231.957031 243.304688 231.992188 C 242.300781 232.023438 241.320312 231.902344 240.355469 231.625 C 238.4375 231.046875 236.78125 230.035156 235.390625 228.59375 C 234.101562 227.023438 232.9375 225.367188 231.894531 223.625 C 231.375 222.710938 230.679688 221.964844 229.804688 221.386719 C 228.929688 220.808594 227.96875 220.460938 226.929688 220.34375 C 225.699219 220.367188 224.515625 220.609375 223.378906 221.074219 C 222.242188 221.535156 221.222656 222.1875 220.328125 223.027344 C 213.921875 228.367188 211.390625 237.460938 203.472656 241.1875 C 201.882812 241.921875 200.226562 242.433594 198.5 242.730469 C 196.773438 243.023438 195.035156 243.085938 193.292969 242.921875 C 191.550781 242.753906 189.855469 242.367188 188.214844 241.75 C 186.574219 241.136719 185.042969 240.320312 183.617188 239.300781 C 183.917969 249.734375 183.917969 260.175781 183.617188 270.628906 C 191.023438 270.855469 198.410156 270.601562 205.78125 269.859375 C 219.820312 268.402344 233.46875 265.265625 246.734375 260.441406 C 258.210938 256.277344 269.105469 250.929688 279.421875 244.394531 C 279.382812 244.277344 279.382812 244.160156 279.421875 244.046875 C 279.695312 238.304688 279.941406 232.542969 280.117188 226.804688 L 279.941406 226.804688 L 280.167969 225.808594 C 280.242188 224.765625 280.265625 223.722656 280.316406 222.679688 Z M 280.835938 174.085938 C 278.207031 179.5 272.597656 182.433594 267.1875 184.46875 C 260.359375 187.078125 253.3125 189.214844 246.261719 191.128906 C 239.214844 193.042969 231.695312 194.730469 224.324219 196.097656 C 210.0625 198.632812 195.691406 199.800781 181.210938 199.601562 C 181.707031 204.570312 182.15625 209.539062 182.550781 214.332031 C 183.113281 222.050781 183.519531 229.785156 183.769531 237.535156 C 184.582031 238.207031 185.445312 238.800781 186.363281 239.316406 C 187.28125 239.832031 188.238281 240.269531 189.230469 240.617188 C 190.222656 240.96875 191.238281 241.230469 192.277344 241.402344 C 193.316406 241.574219 194.363281 241.652344 195.417969 241.640625 C 196.46875 241.628906 197.511719 241.527344 198.546875 241.332031 C 199.582031 241.140625 200.59375 240.855469 201.578125 240.484375 C 202.5625 240.113281 203.511719 239.660156 204.417969 239.125 C 205.324219 238.585938 206.175781 237.972656 206.972656 237.289062 C 209.910156 234.234375 212.515625 230.921875 214.792969 227.351562 C 215.910156 225.542969 217.28125 223.960938 218.914062 222.601562 C 220.542969 221.242188 222.347656 220.175781 224.324219 219.402344 C 225.3125 219.082031 226.328125 218.984375 227.359375 219.101562 C 228.394531 219.21875 229.359375 219.542969 230.253906 220.070312 C 231.792969 221.195312 233.019531 222.59375 233.929688 224.269531 C 234.898438 226.023438 236.15625 227.539062 237.699219 228.816406 C 239.402344 230.050781 241.304688 230.664062 243.410156 230.65625 C 248.050781 230.65625 250.632812 226.132812 252.246094 222.28125 C 253.859375 218.429688 255.472656 213.511719 259.691406 211.226562 C 260.574219 210.710938 261.527344 210.386719 262.542969 210.257812 C 263.558594 210.128906 264.5625 210.203125 265.546875 210.480469 C 267.40625 211.179688 268.921875 212.328125 270.089844 213.933594 C 272.570312 216.867188 275.476562 222.855469 280.191406 221.265625 L 280.339844 221.265625 C 280.820312 205.546875 280.984375 189.820312 280.835938 174.085938 Z M 275.871094 152.746094 L 275.699219 152.519531 C 271.367188 147.699219 266.332031 143.789062 260.582031 140.796875 C 254.742188 137.433594 248.628906 134.675781 242.242188 132.523438 C 232.816406 129.347656 223.136719 127.53125 213.203125 127.082031 C 213.054688 128.621094 212.882812 130.160156 212.882812 131.703125 C 214.472656 132.09375 215.914062 132.796875 217.199219 133.8125 C 217.679688 134.1875 218.117188 134.601562 218.519531 135.054688 C 218.921875 135.511719 219.28125 135.996094 219.59375 136.519531 C 219.90625 137.039062 220.171875 137.582031 220.386719 138.152344 C 220.597656 138.71875 220.757812 139.304688 220.867188 139.902344 C 220.972656 140.5 221.023438 141.101562 221.019531 141.707031 C 221.015625 142.316406 220.957031 142.917969 220.84375 143.515625 C 220.730469 144.109375 220.5625 144.691406 220.34375 145.257812 C 220.121094 145.824219 219.851562 146.367188 219.53125 146.882812 C 218.824219 147.800781 218.003906 148.609375 217.078125 149.308594 C 216.152344 150.003906 215.148438 150.566406 214.066406 150.992188 C 212.988281 151.417969 211.871094 151.695312 210.71875 151.820312 C 209.566406 151.945312 208.417969 151.914062 207.273438 151.726562 C 206.65625 151.671875 206.050781 151.570312 205.453125 151.417969 C 204.855469 151.265625 204.273438 151.066406 203.707031 150.816406 C 203.140625 150.570312 202.601562 150.277344 202.082031 149.941406 C 201.5625 149.605469 201.078125 149.230469 200.621094 148.8125 C 200.164062 148.398438 199.742188 147.949219 199.359375 147.464844 C 198.976562 146.980469 198.636719 146.464844 198.335938 145.925781 C 198.035156 145.386719 197.78125 144.824219 197.574219 144.242188 C 197.367188 143.660156 197.207031 143.066406 197.097656 142.460938 C 197.023438 141.609375 197.058594 140.765625 197.210938 139.929688 C 197.363281 139.089844 197.621094 138.285156 197.988281 137.519531 C 198.355469 136.75 198.816406 136.042969 199.371094 135.398438 C 199.929688 134.75 200.558594 134.191406 201.265625 133.714844 C 202.789062 132.75 204.433594 132.078125 206.195312 131.695312 C 207.957031 131.308594 209.730469 131.238281 211.515625 131.480469 C 211.515625 129.988281 211.714844 128.523438 211.863281 127.03125 C 208.933594 127.03125 206.03125 127.03125 203.101562 127.03125 C 203.039062 127.597656 202.898438 128.144531 202.679688 128.671875 C 202.257812 129.546875 201.6875 130.3125 200.972656 130.96875 C 200.257812 131.625 199.445312 132.128906 198.535156 132.472656 C 194.789062 134.160156 190.023438 135.304688 186.421875 132.644531 C 185.554688 132.011719 184.832031 131.242188 184.257812 130.332031 C 183.679688 129.421875 183.296875 128.4375 183.097656 127.378906 C 175.351562 127.125 167.808594 128.234375 160.460938 130.707031 C 162.273438 136.199219 160.460938 142.507812 157.980469 147.75 C 156.785156 150.882812 154.921875 153.550781 152.394531 155.75 C 151.816406 156.234375 151.183594 156.640625 150.503906 156.972656 C 149.824219 157.304688 149.113281 157.546875 148.375 157.707031 C 147.636719 157.863281 146.890625 157.929688 146.132812 157.90625 C 145.378906 157.882812 144.636719 157.769531 143.90625 157.566406 C 142.53125 156.957031 141.285156 156.144531 140.171875 155.128906 C 139.058594 154.113281 138.136719 152.945312 137.40625 151.625 C 135.371094 148.792969 133.832031 145.714844 132.789062 142.386719 C 132.355469 140.867188 132.125 139.316406 132.09375 137.738281 C 125.289062 140.488281 119 144.132812 113.230469 148.671875 C 108.050781 152.640625 103.527344 157.253906 99.65625 162.507812 C 98.011719 164.800781 96.734375 167.285156 95.832031 169.960938 C 95.671875 170.421875 95.554688 170.894531 95.484375 171.378906 C 95.121094 173.65625 95.171875 175.925781 95.632812 178.183594 C 96.027344 179.867188 96.664062 181.445312 97.546875 182.929688 C 98.402344 184.386719 99.429688 185.710938 100.621094 186.90625 C 103.023438 189.324219 105.796875 191.195312 108.9375 192.519531 C 115.644531 194.992188 122.566406 196.335938 129.710938 196.542969 L 129.910156 196.542969 C 134.144531 193.511719 138.421875 190.539062 142.742188 187.625 C 159.191406 176.589844 176.21875 166.527344 193.820312 157.441406 C 193.957031 157.367188 194.097656 157.339844 194.25 157.363281 C 194.40625 157.382812 194.535156 157.449219 194.644531 157.558594 C 194.753906 157.667969 194.820312 157.800781 194.839844 157.953125 C 194.863281 158.105469 194.835938 158.25 194.761719 158.382812 C 193.472656 161.367188 192.28125 164.371094 191.066406 167.378906 C 187.144531 177.390625 183.742188 187.574219 180.863281 197.9375 L 181.011719 198.132812 L 184.835938 198.132812 C 199.410156 198.105469 213.847656 196.679688 228.144531 193.859375 C 235.34375 192.46875 242.492188 190.730469 249.539062 188.71875 C 253.015625 187.726562 256.464844 186.65625 259.890625 185.515625 C 262.992188 184.496094 266.144531 183.453125 269.171875 182.160156 C 271.9375 181.007812 274.421875 179.40625 276.617188 177.363281 C 283.765625 170.507812 281.507812 159.726562 275.847656 152.746094 Z M 198.933594 144.273438 C 202.035156 152.148438 215.386719 152.71875 219.011719 144.945312 C 219.210938 144.449219 219.363281 143.9375 219.46875 143.414062 C 219.574219 142.890625 219.628906 142.363281 219.636719 141.828125 C 219.644531 141.292969 219.601562 140.765625 219.511719 140.238281 C 219.421875 139.710938 219.28125 139.195312 219.097656 138.695312 C 218.914062 138.195312 218.683594 137.714844 218.410156 137.257812 C 218.136719 136.800781 217.820312 136.371094 217.46875 135.96875 C 217.113281 135.570312 216.726562 135.203125 216.308594 134.875 C 215.886719 134.546875 215.441406 134.257812 214.964844 134.011719 C 208.363281 130.359375 195.507812 135.207031 198.933594 144.273438 Z M 264.257812 178.035156 C 264.09375 178.066406 263.957031 178.148438 263.851562 178.277344 C 263.746094 178.40625 263.691406 178.550781 263.691406 178.71875 C 263.691406 178.886719 263.746094 179.035156 263.851562 179.164062 C 263.957031 179.289062 264.09375 179.371094 264.257812 179.402344 C 264.421875 179.371094 264.554688 179.289062 264.660156 179.164062 C 264.769531 179.035156 264.820312 178.886719 264.820312 178.71875 C 264.820312 178.550781 264.769531 178.40625 264.660156 178.277344 C 264.554688 178.148438 264.421875 178.066406 264.257812 178.035156 Z M 272.597656 159.054688 L 272.597656 158.929688 L 272.027344 158.929688 C 271.933594 158.90625 271.84375 158.90625 271.753906 158.929688 C 271.578125 159.003906 271.453125 159.128906 271.378906 159.304688 C 271.355469 159.386719 271.355469 159.46875 271.378906 159.550781 L 271.378906 159.75 C 271.398438 159.871094 271.457031 159.972656 271.554688 160.050781 L 271.703125 160.050781 C 271.820312 160.085938 271.933594 160.085938 272.050781 160.050781 L 272.273438 160.050781 C 272.355469 160.078125 272.4375 160.078125 272.523438 160.050781 C 272.695312 159.976562 272.820312 159.851562 272.894531 159.675781 C 272.921875 159.585938 272.921875 159.492188 272.894531 159.402344 L 272.894531 159.230469 C 272.8125 159.140625 272.710938 159.085938 272.597656 159.054688 Z M 271.007812 166.730469 L 270.859375 166.730469 C 270.742188 166.695312 270.628906 166.695312 270.511719 166.730469 L 270.3125 166.730469 C 270.203125 166.769531 270.101562 166.828125 270.015625 166.90625 L 269.792969 167.128906 C 269.726562 167.191406 269.675781 167.265625 269.644531 167.351562 C 269.617188 167.445312 269.617188 167.535156 269.644531 167.625 C 269.621094 167.71875 269.621094 167.808594 269.644531 167.898438 C 269.675781 167.984375 269.726562 168.058594 269.792969 168.125 L 269.941406 168.125 C 270.058594 168.160156 270.171875 168.160156 270.289062 168.125 L 270.460938 168.125 C 270.574219 168.085938 270.671875 168.027344 270.761719 167.949219 L 271.007812 167.726562 C 271.015625 167.652344 271.015625 167.578125 271.007812 167.503906 C 271.03125 167.410156 271.03125 167.320312 271.007812 167.230469 C 271.035156 167.136719 271.035156 167.046875 271.007812 166.957031 C 271.015625 166.882812 271.015625 166.804688 271.007812 166.730469 Z M 275.5 166.957031 C 275.382812 166.921875 275.269531 166.921875 275.152344 166.957031 L 274.929688 166.957031 C 274.8125 166.984375 274.714844 167.042969 274.632812 167.128906 L 274.410156 167.351562 C 274.339844 167.417969 274.292969 167.492188 274.257812 167.578125 C 274.191406 167.757812 274.191406 167.941406 274.257812 168.125 C 274.292969 168.210938 274.339844 168.285156 274.410156 168.347656 C 274.523438 168.378906 274.640625 168.378906 274.753906 168.347656 L 274.929688 168.347656 C 275.046875 168.320312 275.144531 168.261719 275.226562 168.171875 L 275.449219 167.949219 C 275.519531 167.886719 275.566406 167.8125 275.601562 167.726562 C 275.636719 167.632812 275.636719 167.542969 275.601562 167.453125 C 275.636719 167.359375 275.636719 167.269531 275.601562 167.179688 C 275.582031 167.097656 275.550781 167.023438 275.5 166.957031 Z M 271.007812 174.855469 C 270.9375 174.796875 270.863281 174.746094 270.785156 174.707031 L 270.3125 174.707031 C 270.203125 174.746094 270.101562 174.804688 270.015625 174.878906 L 270.015625 175.03125 C 269.976562 175.144531 269.976562 175.261719 270.015625 175.378906 L 270.015625 175.601562 C 269.992188 175.675781 269.972656 175.75 269.964844 175.824219 C 270 175.910156 270.046875 175.984375 270.113281 176.046875 L 270.339844 176.199219 L 270.785156 176.199219 C 270.90625 176.164062 271.011719 176.105469 271.105469 176.023438 L 271.105469 175.875 C 271.132812 175.757812 271.132812 175.640625 271.105469 175.527344 L 271.105469 175.304688 C 271.128906 175.210938 271.128906 175.121094 271.105469 175.03125 C 271.078125 174.96875 271.046875 174.910156 271.007812 174.855469 Z M 113.605469 159.078125 C 113.410156 159.082031 113.25 159.148438 113.113281 159.285156 C 112.976562 159.421875 112.910156 159.582031 112.910156 159.777344 C 112.910156 159.96875 112.976562 160.132812 113.113281 160.265625 C 113.25 160.402344 113.410156 160.472656 113.605469 160.472656 C 113.796875 160.472656 113.957031 160.402344 114.09375 160.265625 C 114.230469 160.132812 114.296875 159.96875 114.296875 159.777344 C 114.296875 159.582031 114.230469 159.421875 114.09375 159.285156 C 113.957031 159.148438 113.796875 159.082031 113.605469 159.078125 Z M 163.242188 153.09375 L 162.796875 152.867188 C 162.710938 152.847656 162.628906 152.847656 162.546875 152.867188 C 162.449219 152.84375 162.347656 152.84375 162.25 152.867188 L 162.027344 152.992188 C 161.949219 153.042969 161.890625 153.109375 161.851562 153.191406 L 161.851562 153.367188 C 161.828125 153.488281 161.828125 153.613281 161.851562 153.738281 L 161.851562 153.886719 C 161.902344 154.003906 161.984375 154.085938 162.101562 154.136719 L 162.546875 154.382812 C 162.628906 154.40625 162.710938 154.40625 162.796875 154.382812 C 162.886719 154.421875 162.976562 154.421875 163.070312 154.382812 C 163.164062 154.367188 163.246094 154.328125 163.316406 154.261719 L 163.492188 154.085938 L 163.492188 153.914062 C 163.515625 153.789062 163.515625 153.664062 163.492188 153.539062 L 163.242188 153.464844 C 163.210938 153.324219 163.144531 153.199219 163.042969 153.09375 Z M 124.25 156.546875 C 124.085938 156.578125 123.953125 156.65625 123.847656 156.785156 C 123.738281 156.914062 123.6875 157.0625 123.6875 157.230469 C 123.6875 157.394531 123.738281 157.542969 123.847656 157.671875 C 123.953125 157.800781 124.085938 157.882812 124.25 157.914062 C 124.414062 157.882812 124.550781 157.800781 124.65625 157.671875 C 124.761719 157.542969 124.816406 157.394531 124.816406 157.230469 C 124.816406 157.0625 124.761719 156.914062 124.65625 156.785156 C 124.550781 156.65625 124.414062 156.578125 124.25 156.546875 Z M 135.148438 164.84375 C 135.023438 164.808594 134.898438 164.808594 134.773438 164.84375 L 134.601562 164.84375 C 134.484375 164.871094 134.382812 164.929688 134.304688 165.019531 L 134.078125 165.242188 C 134.011719 165.304688 133.964844 165.378906 133.929688 165.464844 C 133.824219 165.648438 133.824219 165.828125 133.929688 166.011719 C 133.964844 166.097656 134.011719 166.171875 134.078125 166.234375 C 134.195312 166.269531 134.3125 166.269531 134.425781 166.234375 L 134.625 166.234375 C 134.742188 166.207031 134.839844 166.148438 134.921875 166.0625 L 135.148438 165.835938 C 135.214844 165.773438 135.261719 165.699219 135.296875 165.613281 C 135.363281 165.433594 135.363281 165.25 135.296875 165.066406 C 135.261719 164.980469 135.214844 164.90625 135.148438 164.84375 Z M 166.890625 137.09375 C 166.828125 136.992188 166.742188 136.910156 166.644531 136.84375 L 165.921875 136.84375 L 165.921875 137.167969 C 165.910156 137.242188 165.910156 137.316406 165.921875 137.390625 C 165.910156 137.449219 165.910156 137.507812 165.921875 137.566406 L 165.921875 137.863281 L 166.816406 137.863281 C 166.902344 137.824219 166.964844 137.769531 167.015625 137.691406 C 167.023438 137.613281 167.023438 137.539062 167.015625 137.464844 C 167.039062 137.382812 167.039062 137.300781 167.015625 137.21875 C 167.039062 137.117188 167.039062 137.019531 167.015625 136.917969 Z M 119.734375 167.875 C 119.605469 167.742188 119.445312 167.675781 119.261719 167.675781 L 118.320312 167.675781 C 118.230469 167.703125 118.15625 167.753906 118.097656 167.824219 C 118.027344 167.886719 117.980469 167.960938 117.945312 168.046875 C 117.921875 168.140625 117.921875 168.230469 117.945312 168.320312 L 117.945312 168.496094 C 117.988281 168.617188 118.054688 168.726562 118.144531 168.820312 C 118.273438 168.949219 118.433594 169.015625 118.617188 169.015625 L 119.3125 169.015625 C 119.484375 168.984375 119.640625 168.917969 119.785156 168.820312 C 119.851562 168.753906 119.898438 168.679688 119.933594 168.59375 C 119.96875 168.503906 119.96875 168.414062 119.933594 168.320312 L 119.933594 168.125 C 119.894531 168.027344 119.835938 167.941406 119.757812 167.875 Z M 168.578125 143.949219 L 168.578125 143.824219 C 168.460938 143.804688 168.347656 143.804688 168.230469 143.824219 L 168.007812 143.824219 C 167.917969 143.800781 167.824219 143.800781 167.734375 143.824219 C 167.640625 143.847656 167.566406 143.898438 167.511719 143.976562 C 167.441406 144.023438 167.390625 144.089844 167.363281 144.175781 C 167.339844 144.265625 167.339844 144.355469 167.363281 144.445312 L 167.363281 144.644531 C 167.402344 144.757812 167.460938 144.855469 167.535156 144.945312 L 167.683594 144.945312 C 167.800781 144.980469 167.917969 144.980469 168.03125 144.945312 L 168.480469 144.945312 C 168.5625 144.917969 168.628906 144.867188 168.679688 144.792969 C 168.746094 144.730469 168.792969 144.65625 168.828125 144.570312 C 168.851562 144.480469 168.851562 144.390625 168.828125 144.296875 L 168.828125 144.125 C 168.765625 144.046875 168.691406 143.992188 168.601562 143.949219 Z M 102.808594 166.136719 C 102.75 166.058594 102.675781 166.007812 102.582031 165.988281 C 102.5 165.960938 102.417969 165.960938 102.335938 165.988281 L 102.136719 165.988281 C 102.023438 166.03125 101.921875 166.097656 101.839844 166.183594 C 101.804688 166.300781 101.804688 166.417969 101.839844 166.53125 L 101.839844 166.757812 C 101.824219 166.847656 101.824219 166.9375 101.839844 167.03125 C 101.859375 167.125 101.910156 167.199219 101.988281 167.253906 C 102.050781 167.320312 102.125 167.371094 102.210938 167.402344 C 102.300781 167.429688 102.394531 167.429688 102.484375 167.402344 L 102.660156 167.402344 C 102.78125 167.382812 102.878906 167.324219 102.957031 167.230469 L 103.082031 167.078125 C 103.105469 166.964844 103.105469 166.847656 103.082031 166.730469 L 103.082031 166.507812 C 103.105469 166.425781 103.105469 166.34375 103.082031 166.261719 C 103.007812 166.179688 102.917969 166.136719 102.808594 166.136719 Z M 125.664062 148.296875 C 125.472656 148.296875 125.308594 148.367188 125.175781 148.5 C 125.039062 148.636719 124.972656 148.800781 124.972656 148.992188 C 124.972656 149.1875 125.039062 149.347656 125.175781 149.484375 C 125.308594 149.621094 125.472656 149.6875 125.664062 149.6875 C 125.859375 149.6875 126.023438 149.621094 126.15625 149.484375 C 126.292969 149.347656 126.359375 149.1875 126.359375 148.992188 C 126.359375 148.800781 126.292969 148.636719 126.15625 148.5 C 126.023438 148.367188 125.859375 148.296875 125.664062 148.296875 Z M 120.355469 151.378906 L 120.207031 151.378906 C 120.089844 151.339844 119.972656 151.339844 119.859375 151.378906 L 119.660156 151.378906 C 119.550781 151.417969 119.449219 151.476562 119.363281 151.550781 L 119.136719 151.777344 C 119.070312 151.839844 119.023438 151.914062 118.988281 152 C 118.921875 152.183594 118.921875 152.363281 118.988281 152.546875 C 119.023438 152.632812 119.070312 152.707031 119.136719 152.769531 L 119.289062 152.769531 C 119.402344 152.808594 119.519531 152.808594 119.632812 152.769531 L 119.808594 152.769531 C 119.929688 152.738281 120.035156 152.679688 120.132812 152.597656 L 120.355469 152.371094 C 120.40625 152.304688 120.445312 152.226562 120.480469 152.148438 C 120.5 152.058594 120.5 151.964844 120.480469 151.875 C 120.503906 151.785156 120.503906 151.691406 120.480469 151.601562 C 120.445312 151.523438 120.40625 151.449219 120.355469 151.378906 Z M 246.609375 156.84375 C 246.484375 156.871094 246.382812 156.933594 246.300781 157.035156 C 246.21875 157.136719 246.179688 157.25 246.179688 157.378906 C 246.179688 157.507812 246.21875 157.621094 246.300781 157.722656 C 246.382812 157.820312 246.484375 157.886719 246.609375 157.914062 C 246.734375 157.886719 246.839844 157.820312 246.917969 157.722656 C 247 157.621094 247.039062 157.507812 247.039062 157.378906 C 247.039062 157.25 247 157.136719 246.917969 157.035156 C 246.839844 156.933594 246.734375 156.871094 246.609375 156.84375 Z M 253.632812 156.644531 C 253.648438 156.578125 253.648438 156.511719 253.632812 156.445312 L 253.632812 156.324219 C 253.660156 156.230469 253.660156 156.140625 253.632812 156.050781 L 253.632812 155.925781 L 252.617188 155.925781 C 252.617188 155.925781 252.617188 155.925781 252.46875 156.074219 C 252.445312 156.132812 252.445312 156.191406 252.46875 156.246094 L 252.46875 156.398438 C 252.445312 156.488281 252.445312 156.578125 252.46875 156.671875 C 252.550781 156.691406 252.632812 156.691406 252.714844 156.671875 L 253.3125 156.671875 C 253.378906 156.691406 253.445312 156.691406 253.511719 156.671875 Z M 257.976562 160.347656 C 257.851562 160.375 257.75 160.4375 257.667969 160.539062 C 257.589844 160.636719 257.546875 160.753906 257.546875 160.882812 C 257.546875 161.011719 257.589844 161.125 257.667969 161.222656 C 257.75 161.324219 257.851562 161.386719 257.976562 161.414062 C 258.101562 161.386719 258.207031 161.324219 258.289062 161.222656 C 258.367188 161.125 258.40625 161.011719 258.40625 160.882812 C 258.40625 160.753906 258.367188 160.636719 258.289062 160.539062 C 258.207031 160.4375 258.101562 160.375 257.976562 160.347656 Z M 253.980469 164.421875 C 253.855469 164.449219 253.753906 164.511719 253.671875 164.613281 C 253.59375 164.710938 253.550781 164.828125 253.550781 164.957031 C 253.550781 165.085938 253.59375 165.199219 253.671875 165.296875 C 253.753906 165.398438 253.855469 165.460938 253.980469 165.488281 C 254.109375 165.460938 254.210938 165.398438 254.292969 165.296875 C 254.371094 165.199219 254.414062 165.085938 254.414062 164.957031 C 254.414062 164.828125 254.371094 164.710938 254.292969 164.613281 C 254.210938 164.511719 254.109375 164.449219 253.980469 164.421875 Z M 241.945312 166.035156 C 241.855469 166.015625 241.761719 166.015625 241.671875 166.035156 C 241.605469 166.011719 241.539062 166.011719 241.472656 166.035156 C 241.414062 166.015625 241.355469 166.015625 241.300781 166.035156 C 241.242188 166.085938 241.203125 166.140625 241.175781 166.210938 C 241.160156 166.277344 241.160156 166.34375 241.175781 166.410156 L 241.175781 166.558594 C 241.195312 166.652344 241.246094 166.726562 241.324219 166.78125 C 241.414062 166.804688 241.507812 166.804688 241.597656 166.78125 L 241.796875 166.78125 C 241.929688 166.714844 242.027344 166.617188 242.09375 166.484375 C 242.121094 166.417969 242.121094 166.351562 242.09375 166.285156 L 242.09375 166.136719 C 242.050781 166.09375 242 166.0625 241.945312 166.035156 Z M 249.8125 171.003906 L 249.636719 171.003906 C 249.574219 170.980469 249.507812 170.980469 249.441406 171.003906 L 249.292969 171.003906 C 249.199219 171.03125 249.117188 171.074219 249.042969 171.128906 L 249.042969 171.253906 C 249.019531 171.335938 249.019531 171.417969 249.042969 171.5 C 249.03125 171.578125 249.03125 171.652344 249.042969 171.726562 C 249.035156 171.785156 249.035156 171.839844 249.042969 171.898438 L 249.6875 171.898438 L 249.6875 171.773438 C 249.714844 171.683594 249.714844 171.59375 249.6875 171.5 C 249.710938 171.4375 249.710938 171.371094 249.6875 171.304688 C 249.746094 171.238281 249.785156 171.164062 249.8125 171.078125 Z M 241.574219 173.9375 C 241.480469 173.910156 241.390625 173.910156 241.300781 173.9375 L 241.101562 173.9375 C 241.03125 173.960938 240.972656 174.003906 240.925781 174.0625 C 240.925781 174.0625 240.925781 174.0625 240.925781 174.210938 C 240.902344 174.285156 240.902344 174.359375 240.925781 174.433594 C 240.914062 174.515625 240.914062 174.597656 240.925781 174.683594 L 241.050781 174.683594 C 241.132812 174.703125 241.214844 174.703125 241.300781 174.683594 C 241.375 174.707031 241.449219 174.707031 241.523438 174.683594 L 241.695312 174.683594 C 241.710938 174.625 241.710938 174.566406 241.695312 174.507812 C 241.707031 174.441406 241.707031 174.375 241.695312 174.308594 L 241.695312 174.160156 C 241.664062 174.101562 241.625 174.050781 241.574219 174.011719 Z M 257.878906 168.96875 C 257.753906 168.996094 257.648438 169.058594 257.570312 169.160156 C 257.488281 169.257812 257.449219 169.375 257.449219 169.503906 C 257.449219 169.628906 257.488281 169.746094 257.570312 169.84375 C 257.648438 169.945312 257.753906 170.007812 257.878906 170.035156 C 258.132812 169.957031 258.261719 169.78125 258.261719 169.515625 C 258.261719 169.246094 258.132812 169.074219 257.878906 168.992188 Z M 257.878906 168.96875 " fill-opacity="1" fill-rule="nonzero"/></g><g clip-path="url(#id2)"><g clip-path="url(#id3)"><g clip-path="url(#id4)"><g clip-path="url(#id5)"><path fill="rgb(97.648621%, 65.489197%, 32.548523%)" d="M 242.847656 143.871094 C 242.847656 143.871094 241.960938 134.96875 234.996094 130.882812 C 228.03125 126.796875 221.59375 126.472656 210.019531 129.386719 C 200.796875 131.707031 180.910156 139.097656 169.816406 146.726562 C 166.992188 148.667969 164.789062 150.703125 163.542969 152.792969 C 157.414062 163.09375 151.882812 173.304688 157.679688 180.433594 C 163.476562 187.5625 245.304688 163.90625 242.847656 143.871094 " fill-opacity="1" fill-rule="nonzero"/></g></g></g></g><g clip-path="url(#id6)"><g clip-path="url(#id7)"><g clip-path="url(#id8)"><g clip-path="url(#id9)"><path fill="rgb(97.24884%, 62.348938%, 27.059937%)" d="M 243.867188 148.984375 C 243.546875 144.15625 228.632812 137.300781 210.101562 142.398438 C 191.570312 147.492188 175.289062 155.773438 167.609375 163.90625 C 159.925781 172.042969 161.96875 185.980469 161.96875 185.980469 L 243.867188 148.984375 " fill-opacity="1" fill-rule="nonzero"/></g></g></g></g><g clip-path="url(#id10)"><g clip-path="url(#id11)"><g clip-path="url(#id12)"><g clip-path="url(#id13)"><path fill="rgb(42.749023%, 27.059937%, 6.669617%)" d="M 244.359375 150.289062 C 244.039062 145.457031 229.125 138.605469 210.59375 143.699219 C 192.0625 148.792969 175.78125 157.074219 168.101562 165.207031 C 160.417969 173.34375 162.460938 187.28125 162.460938 187.28125 L 244.359375 150.289062 " fill-opacity="1" fill-rule="nonzero"/></g></g></g></g><g clip-path="url(#id14)"><g clip-path="url(#id15)"><g clip-path="url(#id16)"><g clip-path="url(#id17)"><path fill="rgb(51.368713%, 32.548523%, 8.239746%)" d="M 242.960938 150.980469 C 242.378906 146.175781 227.121094 140.136719 208.890625 146.222656 C 190.660156 152.3125 174.851562 161.457031 167.617188 169.996094 C 160.382812 178.53125 163.175781 192.339844 163.175781 192.339844 L 242.960938 150.980469 " fill-opacity="1" fill-rule="nonzero"/></g></g></g></g><g clip-path="url(#id18)"><g clip-path="url(#id19)"><g clip-path="url(#id20)"><g clip-path="url(#id21)"><path fill="rgb(87.838745%, 64.709473%, 10.978699%)" d="M 248.050781 147.226562 C 248.050781 147.226562 231.558594 144.199219 224.027344 137.78125 C 224.027344 137.78125 210.96875 153.890625 186.316406 166.210938 C 161.667969 178.53125 157.878906 174.675781 157.878906 174.675781 C 157.878906 174.675781 154.882812 190.269531 165.035156 200.199219 C 175.1875 210.132812 248.050781 147.226562 248.050781 147.226562 " fill-opacity="1" fill-rule="nonzero"/></g></g></g></g><g clip-path="url(#id22)"><g clip-path="url(#id23)"><g clip-path="url(#id24)"><g clip-path="url(#id25)"><path fill="rgb(98.81897%, 83.139038%, 19.219971%)" d="M 249.5 150.027344 C 249.5 150.027344 231.972656 146.234375 224.441406 139.816406 C 224.441406 139.816406 211.382812 155.929688 186.730469 168.25 C 162.078125 180.566406 158.292969 176.714844 158.292969 176.714844 C 158.292969 176.714844 155.296875 192.308594 165.449219 202.238281 C 175.597656 212.167969 249.5 150.027344 249.5 150.027344 " fill-opacity="1" fill-rule="nonzero"/></g></g></g></g><g clip-path="url(#id26)"><g clip-path="url(#id27)"><g clip-path="url(#id28)"><g clip-path="url(#id29)"><path fill="rgb(94.898987%, 31.369019%, 28.62854%)" d="M 260.183594 167.515625 C 264.488281 163.03125 266.300781 157.117188 267.066406 152.867188 C 267.253906 151.824219 268.460938 151.222656 268.441406 150.421875 C 268.386719 148.292969 267.625 147.414062 267.625 147.414062 C 267.625 147.414062 254.433594 151.074219 238.921875 153.699219 C 238.191406 153.820312 236.046875 152.441406 235.3125 152.566406 C 233.964844 152.796875 229.109375 156.199219 227.328125 156.425781 C 226.386719 156.546875 217.671875 154.953125 216.964844 155.019531 C 214.871094 155.210938 208.394531 159.480469 205.367188 160.472656 C 204.476562 160.761719 200.378906 159.445312 199.578125 159.765625 C 195.851562 161.246094 193.011719 162.902344 190.507812 163.574219 C 187.761719 164.3125 183.542969 161.699219 183.542969 161.699219 C 183.542969 161.699219 181.371094 159.964844 179.308594 164.035156 C 178.425781 165.78125 178.339844 168.957031 178.136719 171.742188 C 178 173.664062 176.542969 175.601562 175.621094 177.320312 C 175.28125 177.953125 170.683594 179.875 168.996094 180.609375 C 168.300781 180.914062 168.058594 183.601562 167.863281 184.382812 C 167.589844 185.476562 169 186.109375 168.722656 186.917969 C 168.6875 187.019531 166.964844 187.417969 166.925781 187.519531 C 166.757812 187.988281 166.589844 188.414062 166.414062 188.800781 C 165.101562 191.746094 163.707031 192.523438 162.164062 194.277344 C 161.019531 195.574219 158.300781 196.574219 157.621094 197.722656 C 156.730469 199.230469 157.5 203.144531 156.992188 204.015625 C 156.019531 205.6875 154.71875 208.464844 157.152344 209.078125 C 156.886719 209.011719 159.574219 199.261719 162.816406 199.367188 C 168.40625 199.550781 175.578125 198.636719 192.789062 194.839844 C 231.125 186.375 260.183594 167.515625 260.183594 167.515625 " fill-opacity="1" fill-rule="nonzero"/></g></g></g></g><g clip-path="url(#id30)"><g clip-path="url(#id31)"><g clip-path="url(#id32)"><g clip-path="url(#id33)"><path fill="rgb(96.078491%, 46.669006%, 40.779114%)" d="M 261 170.519531 C 267.320312 163.9375 268.273438 154.273438 268.417969 151.316406 C 268.445312 150.742188 268.441406 150.421875 268.441406 150.421875 C 268.441406 150.421875 251.253906 154.753906 234.652344 157.59375 C 233.628906 157.769531 230.628906 158.253906 230.15625 158.328125 C 228.851562 158.527344 227.566406 158.714844 226.300781 158.890625 C 225.355469 159.019531 220.933594 157.882812 218.652344 157.929688 C 214.171875 158.015625 208.945312 162.492188 205.851562 163.492188 C 205.167969 163.714844 201.257812 162.320312 200.625 162.558594 C 196.425781 164.160156 193.414062 166.046875 190.910156 166.765625 C 188.695312 167.394531 184.789062 164.679688 184.789062 164.679688 C 184.789062 164.679688 182.609375 162.753906 180.65625 166.460938 C 179.941406 167.808594 180.613281 171.035156 179.617188 172.847656 C 178.535156 174.8125 178.539062 177.15625 176.746094 179.257812 C 175.691406 180.496094 171.9375 181.808594 170.640625 183.140625 C 169.832031 183.964844 169.449219 184.6875 169.199219 185.691406 C 169.101562 186.089844 169.023438 186.527344 168.953125 187.035156 C 168.90625 187.351562 171.066406 186.765625 171.847656 187.117188 C 172.347656 187.339844 171.605469 188.515625 171.558594 188.703125 C 171.441406 189.15625 168.394531 189.414062 168.238281 189.832031 C 166.964844 193.226562 164.5625 195.355469 163.171875 196.921875 C 161.703125 198.574219 160.097656 198.28125 159.210938 199.789062 C 158.480469 201.019531 159.191406 202.949219 158.660156 203.980469 C 157.257812 206.714844 157.84375 206.582031 157.84375 206.582031 C 157.84375 206.582031 155.273438 206.308594 193.605469 197.84375 C 231.941406 189.382812 261 170.519531 261 170.519531 " fill-opacity="1" fill-rule="nonzero"/></g></g></g></g><g clip-path="url(#id34)"><g clip-path="url(#id35)"><g clip-path="url(#id36)"><g clip-path="url(#id37)"><path fill="rgb(85.879517%, 9.799194%, 12.939453%)" d="M 220.742188 202.417969 C 220.847656 227.613281 275.699219 206.898438 293.628906 179.8125 C 305.570312 161.769531 305.9375 160.523438 321.484375 151.230469 C 321.484375 151.230469 220.507812 147.234375 220.742188 202.417969 " fill-opacity="1" fill-rule="nonzero"/></g></g></g></g><g clip-path="url(#id38)"><g clip-path="url(#id39)"><g clip-path="url(#id40)"><g clip-path="url(#id41)"><path fill="rgb(92.939758%, 10.978699%, 14.118958%)" d="M 165.421875 214.695312 C 159.742188 239.234375 217.894531 231.699219 241.566406 209.46875 C 257.332031 194.660156 262.152344 180.824219 233.078125 180.816406 C 203.34375 180.808594 171.71875 187.519531 165.421875 214.695312 " fill-opacity="1" fill-rule="nonzero"/></g></g></g></g><g clip-path="url(#id42)"><g clip-path="url(#id43)"><g clip-path="url(#id44)"><g clip-path="url(#id45)"><path fill="rgb(71.369934%, 10.5896%, 12.939453%)" d="M 290.527344 121.6875 C 290.527344 121.6875 265.753906 123.546875 255.449219 131.132812 C 242.011719 141.019531 244.902344 163.175781 242.054688 167.234375 C 242.054688 167.234375 278.683594 146.621094 290.527344 121.6875 " fill-opacity="1" fill-rule="nonzero"/></g></g></g></g><g clip-path="url(#id46)"><g clip-path="url(#id47)"><g clip-path="url(#id48)"><g clip-path="url(#id49)"><path fill="rgb(98.429871%, 76.469421%, 52.549744%)" d="M 259.800781 187.074219 C 264.703125 208.503906 247.238281 228.5 218.015625 236.964844 C 188.796875 245.433594 178.183594 236.242188 166.703125 216.367188 C 166.191406 215.480469 165.839844 214.339844 165.550781 213.464844 C 159.386719 194.726562 202.691406 179.066406 217.773438 171.902344 C 233.5625 164.402344 254.492188 163.863281 259.800781 187.074219 " fill-opacity="1" fill-rule="nonzero"/></g></g></g></g><g clip-path="url(#id50)"><g clip-path="url(#id51)"><g clip-path="url(#id52)"><g clip-path="url(#id53)"><path fill="rgb(97.648621%, 68.238831%, 37.649536%)" d="M 244.878906 223.511719 C 244.878906 223.511719 259.441406 203.902344 248.242188 189.597656 C 239.34375 178.242188 221 180.1875 208.160156 185.761719 C 195.324219 191.335938 174.828125 200.5625 170.984375 207.003906 C 167.136719 213.445312 168.492188 219.417969 168.492188 219.417969 C 168.492188 219.417969 165.351562 215.1875 164.914062 210.335938 C 164.699219 207.90625 165.597656 205.757812 167.027344 203.03125 C 172.449219 192.699219 194.003906 179.40625 208.945312 173.304688 C 223.886719 167.207031 246.515625 161.34375 258.882812 177.105469 C 271.25 192.867188 256.859375 212.429688 244.878906 223.511719 " fill-opacity="1" fill-rule="nonzero"/></g></g></g></g><g clip-path="url(#id54)"><g clip-path="url(#id55)"><g clip-path="url(#id56)"><g clip-path="url(#id57)"><path fill="rgb(98.039246%, 71.759033%, 40.779114%)" d="M 246.609375 160.042969 C 246.609375 160.042969 249.722656 146.988281 252.753906 134.238281 C 255.308594 123.488281 238.066406 113.789062 236.503906 112.011719 C 233.257812 108.320312 229.457031 108.800781 229.457031 108.800781 C 229.457031 108.800781 224.058594 113.398438 227.878906 116.417969 C 231.699219 119.4375 232.367188 114.847656 232.367188 114.847656 L 243.902344 131.433594 L 234.367188 153.066406 L 231.890625 163.054688 C 231.890625 163.054688 231.933594 171.957031 238.40625 169.546875 C 244.875 167.136719 246.609375 160.042969 246.609375 160.042969 " fill-opacity="1" fill-rule="nonzero"/></g></g></g></g><g clip-path="url(#id58)"><g clip-path="url(#id59)"><g clip-path="url(#id60)"><g clip-path="url(#id61)"><path fill="rgb(90.979004%, 62.748718%, 30.589294%)" d="M 234.25 153.332031 C 234.25 153.332031 237.828125 158.484375 243.339844 157.171875 C 246.957031 156.3125 248.824219 150.75 248.824219 150.75 C 248.167969 154.367188 246.332031 161.144531 246.332031 161.144531 C 246.332031 161.144531 243.910156 171.148438 237.304688 170.582031 C 230.699219 170.019531 233.078125 165.800781 233.078125 165.800781 L 232.589844 163.25 L 234.25 153.332031 " fill-opacity="1" fill-rule="nonzero"/></g></g></g></g><g clip-path="url(#id62)"><g clip-path="url(#id63)"><g clip-path="url(#id64)"><g clip-path="url(#id65)"><path fill="rgb(92.939758%, 10.978699%, 14.118958%)" d="M 234.25 153.332031 C 234.25 153.332031 236.28125 160.125 245.351562 159.070312 C 252.792969 158.207031 254.867188 146.386719 260.648438 142.457031 C 276.199219 131.898438 281.058594 118.527344 285.105469 92.996094 C 288.734375 70.109375 321.660156 61.511719 354.273438 77.515625 C 354.273438 77.515625 329.710938 81.507812 332.148438 107.535156 C 334.59375 133.5625 328.238281 135.027344 319.894531 140.261719 C 311.554688 145.496094 329.292969 156.488281 341.554688 149.691406 C 341.554688 149.691406 320.925781 174.5 300.292969 177.34375 C 276.46875 180.625 273.480469 173.15625 263.234375 186.410156 C 263.234375 186.410156 261.050781 176.835938 247.738281 177.824219 C 223.371094 179.636719 234.164062 153.515625 234.25 153.332031 " fill-opacity="1" fill-rule="nonzero"/></g></g></g></g><g clip-path="url(#id66)"><g clip-path="url(#id67)"><g clip-path="url(#id68)"><g clip-path="url(#id69)"><path fill="rgb(84.709167%, 10.978699%, 13.729858%)" d="M 269.886719 157.976562 C 269.886719 157.976562 296.105469 155.796875 314.277344 142.816406 C 314.277344 142.816406 307.9375 149.199219 319.722656 154.800781 C 319.722656 154.800781 304.628906 151.59375 295.761719 158.492188 C 284.242188 167.449219 270.164062 158.160156 269.886719 157.976562 " fill-opacity="1" fill-rule="nonzero"/></g></g></g></g><g clip-path="url(#id70)"><g clip-path="url(#id71)"><g clip-path="url(#id72)"><g clip-path="url(#id73)"><path fill="rgb(84.709167%, 10.978699%, 13.729858%)" d="M 344.949219 78.183594 C 344.949219 78.183594 321.652344 67.347656 303.53125 79.378906 C 297.136719 83.625 301.3125 91.433594 297.941406 102.675781 C 294.386719 114.519531 283.398438 129.816406 280.867188 134.242188 C 280.867188 134.242188 311.265625 92.59375 326.429688 100.890625 C 326.429688 100.890625 326.171875 84.71875 344.949219 78.183594 " fill-opacity="1" fill-rule="nonzero"/></g></g></g></g></svg>